# xmcd CD database file
#
# Track frame offsets:
#	150
#	11517
#	44512
#	69407
#	121907
#	138402
#	148065
#	157362
#	177502
#	191140
#	210317
#
# Disc length: 3064 seconds
#
# Revision: 0
# Processed by: cddbd v1.4PL0 Copyright (c) Steve Scherf et al.
# Submitted via: CDex 1.40Release
#
DISCID=a60bf60b
DTITLE=Various Artist - 0004
DYEAR=1999
DGENRE=Blues
TTITLE0=John Lee Hooker- Boom Boom
TTITLE1=Type O Negative- Paranoid
TTITLE2=Stereo Nova- Mobil
TTITLE3=Charles Mingus- Orange Was The Colour Of Her Hair
TTITLE4=Sash- Encore Une Fois
TTITLE5=The Sangri- Las- Remember
TTITLE6=Bob Marley- Sun Is Shining
TTITLE7=Ζωντανοι Νεκροι- Στη Χωρα Των Καλυτερων Mcs
TTITLE8=Gonda Manokovska, Repad Zijagi& Dervish Shaqja- O Ne Ate Fushe
TTITLE9=Sepultura- Orgasmatron
TTITLE10=Various- Unkown
EXTD=YEAR: 1999 ID3G: 0
EXTT0=
EXTT1=
EXTT2=
EXTT3=
EXTT4=
EXTT5=
EXTT6=
EXTT7=
EXTT8=
EXTT9=
EXTT10=
PLAYORDER=
